<svg xmlns="http://www.w3.org/2000/svg"  viewBox="0 0 24 24" width="24px" height="24px"><path d="M 9.40625 2 L 10 3 L 10 8 L 8 9 L 8 4 L 8.59375 3 L 5.5 3 L 6.09375 4 L 6.09375 9 L 4.09375 8 L 3.09375 7 L 4.09375 9 L 6.09375 10 L 6.09375 13 L 5.5 14 L 8.6875 14 L 8.09375 13 L 8.09375 10 L 10.09375 9 L 10.09375 14 L 9.59375 15 L 12.6875 15 L 12.1875 14 L 12.1875 8 C 12.1875 8 14.085938 7.101563 14.1875 7 L 14.1875 12 L 13.1875 11 L 14.3125 15.5 L 13.3125 15 L 15.09375 22 L 15.09375 17.6875 L 16.09375 18 L 15.09375 14 L 16.09375 15 L 16.09375 11 C 16.394531 11.398438 17.09375 12 17.09375 12 C 17.394531 12 19.292969 11.488281 19.59375 11.1875 L 20.09375 7 C 20.09375 7 19.1875 4.789063 18.6875 4.1875 C 18.585938 4.1875 16.695313 4.898438 16.09375 5 L 16.09375 4 L 14.09375 5 L 14.09375 6 L 12.09375 7 L 12.09375 3 L 12.6875 2 Z M 17.8125 5.40625 C 17.8125 5.40625 18.09375 8.800781 18.09375 9 L 18.09375 10 C 18.09375 10 17.09375 11.101563 17.09375 11 L 16.09375 10 L 16.09375 6 C 16.492188 5.898438 17.710938 5.304688 17.8125 5.40625 Z"/></svg>